<svg version="1.1" xmlns="http://www.w3.org/2000/svg" style="display: block;" viewBox="0 0 2000 2000" width="500" height="500" preserveAspectRatio="none">
<path transform="translate(0,0)" fill="rgb(255,255,255)" d="M 0 0 L 2000 0 L 2000 2000 L 0 2000 L 0 0 z"/>
<path transform="translate(0,0)" fill="rgb(0,78,122)" d="M 1204.49 123.664 L 1206.79 124.105 C 1210.2 130.08 1225.8 210.633 1228.4 222.869 C 1255.88 351.903 1281.86 481.253 1306.34 610.891 C 1323.01 698.348 1337.83 786.145 1350.79 874.225 C 1331.8 883.989 1299.64 890.75 1283.94 902.075 C 1270.4 911.848 1181.53 1064.85 1160.63 1092.96 L 1159.86 1093.98 C 1142.52 1094.82 1113.15 1092.36 1097.86 1096.48 C 1086.79 1099.46 986.857 1195.68 964.749 1210.21 L 963.577 1210.97 C 867.501 1168.62 777.629 1113.41 696.429 1046.84 C 686.556 1038.35 676.921 1029.58 667.535 1020.56 C 631.367 985.725 604.569 953.233 579.24 909.973 C 572.91 899.16 559.323 885.716 551.584 874.282 C 521.054 829.174 499.263 773.432 515.613 718.852 C 524.819 686.595 535.852 655.744 546.183 623.992 L 602.362 450.669 L 639.607 331.515 C 644.004 317.66 653.671 285.461 659.358 273.081 C 664.397 262.111 693.503 230.491 702.523 221.286 C 751.151 171.784 816.351 133.175 887.302 132.889 C 935.08 132.696 982.01 150.796 1001.29 197.142 C 1010.05 218.18 1010.12 237.946 1009.9 260.205 C 1060.12 237.568 1117.6 192.206 1161.61 158.243 C 1176.04 147.103 1189.54 134.727 1204.49 123.664 z"/>
<path transform="translate(0,0)" fill="rgb(255,255,255)" d="M 1187.61 173.679 C 1190.78 176.306 1197.26 212.789 1198.85 220.246 C 1206.63 256.254 1214.19 292.31 1221.52 328.411 C 1248.05 453.958 1272.53 579.926 1294.97 706.266 C 1299.99 734.346 1304.76 762.473 1309.27 790.641 C 1312.42 811.446 1315.3 836.016 1319.31 856.255 C 1318.62 856.544 1317.92 856.821 1317.22 857.093 C 1139.74 926.265 855.073 1017.52 671.489 936.603 C 604.342 907.007 568.245 859.778 542.387 793.197 C 543.906 786.574 545.008 783.011 547.741 776.838 C 562.74 742.21 591.153 715.155 626.473 701.868 C 684.507 680.002 818.231 676.778 844.731 747.183 C 844.322 748.287 843.886 749.381 843.425 750.464 C 835.173 770.256 819.217 785.833 799.234 793.607 C 778.699 801.824 751.527 804.935 730.71 795.847 C 716.129 789.481 709.956 779.438 704.663 765.459 C 697.633 767.587 681.155 767.31 678.528 773.361 C 681.091 794.049 705.442 817.511 724.864 824.1 C 760.033 836.03 802.033 828.657 832.829 808.399 C 841.868 802.453 848.056 791.198 859.763 788.89 C 870.749 786.033 881.932 784.943 893.127 782.986 C 913.835 779.376 934.457 775.295 954.979 770.746 C 1015.74 757.137 1081.62 737.087 1140.53 716.842 C 1160.51 709.977 1188.73 700.302 1207.48 691.802 C 1205.51 685.172 1203.9 676.724 1202.41 669.825 C 1159.69 684.359 1120.37 700.141 1076.23 714.089 C 1056.54 721.033 1030.17 727.677 1010.07 733.263 C 964.243 745.997 916.679 756.814 869.58 763.679 C 874.365 743.352 883.46 710.363 890.143 690.802 C 957.727 679.349 1017.88 666.479 1083.47 645.226 C 1121.28 632.977 1153.74 619.581 1190.51 604.638 C 1188.13 597.445 1186.17 590.132 1184.15 582.829 C 1159.68 590.559 1132.8 603.934 1107.9 612.326 C 1041.82 634.594 965.897 656.848 896.635 666.469 C 899.559 654.879 912.866 607.852 916.834 598.963 C 1004.43 584.496 1091.63 553.412 1171.85 515.763 L 1167.43 493.313 C 1160.57 495.85 1153.95 498.644 1147.29 501.633 C 1085.66 529.297 1021.29 553.198 955.349 568.26 C 944.337 570.775 935.207 573.152 923.763 573.465 C 927.149 555.035 938.561 518.789 944.016 499.638 C 958.396 495.202 978.541 492.545 995.378 487.763 C 1049.62 472.25 1102.59 452.623 1153.85 429.055 C 1152.51 420.913 1152.33 414.448 1150.54 405.832 C 1132.98 411.671 1110.61 423.214 1092.42 430.398 C 1046.62 448.983 999.336 463.694 951.077 474.379 C 957.511 455.443 965.737 416.809 972.842 400.778 C 990.365 395.568 1010.54 392.178 1029.06 386.977 C 1068.85 375.803 1099.28 361.148 1136.33 343.959 C 1135.32 334.766 1134.54 328.523 1132.63 319.531 C 1118.18 325.674 1100.89 334.792 1085.88 341.52 C 1048.64 358.216 1018.89 366.754 979.294 375.252 L 1001.35 297.344 C 1009.2 291.869 1021.64 286.461 1030.5 282.074 C 1041.33 276.708 1051.9 270.847 1062.19 264.509 C 1108.27 236.397 1145.94 207.175 1187.61 173.679 z"/>
<path transform="translate(0,0)" fill="rgb(0,78,122)" d="M 1154.38 817.89 C 1157.6 792.071 1175.41 813.195 1174.93 803.878 C 1173.95 784.629 1182.75 771.88 1202.32 768.389 C 1216.78 765.81 1223.83 769.647 1235.11 777.415 C 1231.2 792.358 1225.94 808.288 1222.94 823.296 C 1215.8 817.269 1213.66 813.421 1203.92 815.217 C 1200.38 813.507 1199.84 811.239 1197.46 807.487 C 1193.48 816.974 1191.56 823.833 1189.03 833.779 C 1185.22 830.199 1173.22 817.607 1168.2 818.533 C 1166.35 824.66 1170.84 845.869 1177.99 847.725 L 1179.64 845.994 C 1179.56 842.905 1179.41 839.818 1179.2 836.735 L 1180.19 836.362 C 1184.2 839.838 1188.47 844.729 1193.52 841.702 C 1196.1 836.992 1196.74 829.791 1197.64 824.264 C 1198.91 829.443 1199.59 837.514 1204.7 840.362 L 1205.55 839.508 C 1207.93 830.432 1205.52 825.393 1202.98 816.244 C 1208.74 822.102 1219.17 831.323 1225.86 835.955 L 1228.97 837.619 C 1217.81 851.667 1195.44 868.974 1176 861.402 C 1157.52 854.207 1161.85 834.523 1155.09 819.459 L 1154.38 817.89 z"/>
<path transform="translate(0,0)" fill="rgb(0,78,122)" d="M 1233.73 768.19 C 1267.14 763.171 1266.13 793.03 1269.06 794.582 C 1314.19 818.491 1264.3 854.284 1255.02 840.087 C 1255.03 837.286 1260.51 822.067 1261.78 817.787 C 1253.7 828.786 1254.24 832.562 1242.91 843.884 C 1228.25 857.319 1218.71 860.827 1199.94 866.172 C 1212.13 859.697 1221.14 854.048 1230.7 843.607 C 1245.6 827.346 1260.01 800.901 1246.61 779.6 C 1244.09 775.585 1238.5 772.706 1234.98 769.392 L 1233.73 768.19 z"/>
<path transform="translate(0,0)" fill="rgb(0,78,122)" d="M 1242.25 784.168 C 1243.95 804.713 1242.9 820.768 1228.97 837.619 L 1225.86 835.955 C 1231.61 824.22 1236.46 799.068 1242.25 784.168 z"/>
<path transform="translate(0,0)" fill="rgb(255,255,255)" d="M 876.908 161.405 C 909.959 157.896 955.735 169.741 972.444 201.248 C 992.5 239.068 975.659 284.36 964.749 322.29 L 941.667 403.61 L 855.183 709.054 C 845.521 699.123 834.556 690.547 822.59 683.563 C 772.274 654.651 693.612 653.741 638.404 668.905 C 592.439 682.236 573.107 695.926 541.477 730.251 C 547.136 708.817 557.463 680.268 564.468 658.353 L 609.151 517.134 C 624.37 468.674 640.177 420.829 656.486 372.713 C 665.264 346.819 672.449 319.085 681.859 293.405 C 685.157 284.406 695.735 271.773 702.015 264.261 C 745.998 211.651 806.719 167.402 876.908 161.405 z"/>
<path transform="translate(0,0)" fill="rgb(30,138,110)" d="M 1231.51 919.877 C 1233.07 919.96 1232.75 920.054 1234.28 920.787 C 1233.85 925.662 1215.67 952.574 1212.05 958.385 L 1174.05 1018.82 C 1168.71 1027.4 1151.25 1058.77 1141.94 1064.89 C 1139.14 1066.73 1121.09 1066.08 1115.8 1066.02 C 995.95 1064.65 867.16 1052.36 755.762 1005.45 C 749.152 1002.89 707.661 983.996 705.113 980.682 C 706.431 980.366 754.814 990.54 762.157 991.517 C 920.284 1012.56 1082.55 969.15 1231.51 919.877 z"/>
<path transform="translate(0,0)" fill="rgb(255,255,255)" d="M 702.725 1013.2 C 706.33 1014.11 724.529 1022.96 728.966 1024.98 C 746.388 1032.92 762.107 1039.65 780.239 1045.76 C 867.905 1074.5 959.278 1090.37 1051.5 1092.87 C 1043.43 1107.34 1020.92 1124.29 1007.58 1135.72 C 992.047 1149.63 975.207 1165.15 959.036 1178.07 C 933.643 1165.35 908.823 1153.53 883.861 1139.82 C 830.811 1110.93 780.42 1077.4 733.276 1039.63 C 727.218 1034.87 705.652 1018.62 702.725 1013.2 z"/>
<path transform="translate(0,0)" fill="rgb(0,78,122)" d="M 577.097 414.939 C 577.94 415.802 577.769 416.065 578.166 417.457 C 575.26 430.536 544.922 511.967 538.04 521.873 C 524.708 541.063 492.784 565.038 475.177 582.795 C 428.107 630.428 387.533 684.067 354.505 742.322 C 300.231 837.99 271.903 963.288 302.928 1070.36 C 376.676 1324.88 724.196 1363.09 942.923 1335.46 C 995.284 1328.75 1047.05 1318.02 1097.77 1303.37 C 1309.08 1244.23 1534.06 1081.4 1642.26 889.126 C 1640.59 886.323 1638.94 883.503 1637.33 880.665 C 1626.37 861.083 1623.56 837.975 1629.51 816.339 C 1635.05 796.761 1650.67 775.656 1669.06 766.337 C 1736.98 731.929 1809.78 792.144 1787.32 866.235 C 1776.04 895.852 1753.82 916.223 1721.99 920.401 C 1714.47 921.388 1706.03 921.457 1698.42 921.747 C 1677.42 962.608 1654.82 992.514 1626.35 1027.85 C 1541.44 1133.25 1439.48 1214.87 1321.48 1280.3 C 1283.17 1301.54 1228.71 1328.54 1187.31 1343.55 C 996.413 1412.73 766.179 1432.77 569.551 1378.17 C 448.068 1344.43 330.283 1275.65 267.316 1163.28 C 208.362 1058.07 213.292 943.741 245.128 830.797 C 284.886 689.751 382.623 566.97 494.181 474.852 C 515.302 457.411 553.51 428.131 577.097 414.939 z"/>
<path transform="translate(0,0)" fill="rgb(232,54,49)" d="M 1673.61 892.209 C 1671.42 879.135 1672.04 858.975 1671.42 845.267 C 1670.95 834.922 1666.99 795.953 1671.11 789.901 C 1679.19 786.363 1713.04 785.723 1723.15 785.79 C 1730.91 791.532 1741.83 801.393 1749 808.183 C 1754.04 814.338 1751.63 854.947 1753.58 865.92 C 1754.34 870.196 1754.24 883.463 1753.99 888.087 C 1737.21 892.347 1690.66 895.265 1673.61 892.209 z"/>
<path transform="translate(0,0)" fill="rgb(254,75,76)" d="M 1723.15 785.79 C 1730.91 791.532 1741.83 801.393 1749 808.183 C 1741.79 810.104 1729.42 811.105 1721.88 811.128 C 1721.95 803.394 1721.67 793.163 1723.15 785.79 z"/>
<path transform="translate(0,0)" fill="rgb(254,168,176)" d="M 1707.83 816.396 L 1710.33 817.582 C 1714.98 835.35 1709.07 850.117 1691.55 857.152 L 1690.54 855.594 C 1692 851.931 1699.71 847.505 1702.78 843.784 C 1710.03 834.992 1704.34 824.482 1707.83 816.396 z"/>
<path transform="translate(0,0)" fill="rgb(254,168,176)" d="M 1724.29 869.106 C 1726.01 868.735 1725.45 868.879 1727.34 869.327 C 1727.35 872.737 1723.24 878.124 1721.08 882.109 L 1708.98 885.136 L 1706.07 875.207 C 1706.31 871.856 1707.43 871.659 1709.85 869.852 C 1713.35 869.44 1711.82 869.061 1714.66 870.705 C 1714.23 871.629 1713.82 872.56 1713.42 873.496 C 1712.09 876.704 1711.31 878.082 1712.41 880.775 L 1714.87 880.902 C 1716.77 878.468 1716.07 877.434 1716.17 873.55 C 1718.72 871.676 1721.44 870.503 1724.29 869.106 z"/>
<path transform="translate(0,0)" fill="rgb(30,138,110)" d="M 1676.9 1024.37 C 1730.15 1019.94 1767.87 1072.71 1745.4 1120.53 C 1737.66 1137.04 1723.69 1149.8 1706.56 1156.03 C 1689.24 1162.15 1670.2 1161.14 1653.63 1153.22 C 1638.84 1170.31 1606.58 1200.37 1590.25 1215.31 C 1502.21 1296.31 1401.71 1362.62 1292.6 1411.68 C 1134.36 1482.4 942.509 1511.68 770.069 1500.68 C 572.075 1488.04 319.955 1402.93 240.069 1202.36 C 235.718 1191.43 207.412 1117.63 220.434 1111.23 C 228.643 1113.73 232.741 1133.29 235.512 1141.4 C 312.718 1367.26 591.432 1447.84 802.066 1456.21 C 1054.46 1468.57 1303.24 1392.34 1505.39 1240.71 C 1524.12 1226.6 1542.24 1211.24 1560.34 1196.3 C 1584.38 1176.45 1605.91 1153.47 1628.74 1132.39 C 1598.64 1088.06 1623.06 1031.14 1676.9 1024.37 z"/>
<path transform="translate(0,0)" fill="rgb(30,138,110)" d="M 1712.25 1076.74 C 1714.09 1082.63 1716.5 1118.23 1713.08 1125.47 C 1705.34 1131.63 1664.46 1134.13 1657.96 1129.9 C 1651.77 1125.87 1649.16 1064.36 1653.27 1055.81 C 1655.68 1050.8 1684.47 1051.06 1690.06 1051.22 C 1698.5 1057.25 1711.57 1065.75 1712.25 1076.74 z"/>
<path transform="translate(0,0)" fill="rgb(217,253,248)" d="M 1712.25 1076.74 C 1714.09 1082.63 1716.5 1118.23 1713.08 1125.47 C 1705.34 1131.63 1664.46 1134.13 1657.96 1129.9 C 1651.77 1125.87 1649.16 1064.36 1653.27 1055.81 C 1655.68 1050.8 1684.47 1051.06 1690.06 1051.22 L 1688.97 1051.24 L 1688.12 1052.36 C 1686.12 1052.2 1686.39 1051.8 1685.41 1052.6 L 1687.55 1053.54 C 1686.2 1054.95 1686.68 1054.29 1685.99 1055.52 L 1686.37 1055.9 C 1677.45 1058.27 1666.57 1057.12 1657.36 1058.81 C 1656.82 1069.6 1657.18 1116.95 1662.1 1124.43 C 1670.39 1126.9 1699.6 1125.1 1707.35 1121.69 C 1709.28 1116.9 1707.32 1092.02 1706.16 1086.58 L 1705.78 1074.29 L 1707.47 1077.34 C 1708.82 1076.35 1708.24 1076.65 1708.91 1074.37 C 1711.29 1074.94 1710.17 1074.57 1712.25 1076.74 z"/>
<path transform="translate(0,0)" fill="rgb(217,253,248)" d="M 1701.06 1079.64 C 1701.85 1083.3 1701.98 1081.58 1700.78 1085 C 1698.7 1086.78 1698.86 1086.88 1696.25 1087.5 L 1698.07 1088.63 C 1697.07 1090.41 1696.75 1091.46 1695.16 1092.65 C 1685.44 1092.02 1674.9 1093.98 1665.16 1094.02 C 1664.39 1091.28 1665.09 1092.5 1662.41 1090.69 L 1662.76 1089.12 L 1663.01 1085.48 C 1666.99 1081.57 1679.06 1082.22 1686.12 1081.58 C 1691.81 1081.1 1695.43 1080.62 1701.06 1079.64 z"/>
<path transform="translate(0,0)" fill="rgb(40,109,87)" d="M 1662.76 1089.12 C 1673.93 1088.72 1685.09 1088.18 1696.25 1087.5 L 1698.07 1088.63 C 1697.07 1090.41 1696.75 1091.46 1695.16 1092.65 C 1685.44 1092.02 1674.9 1093.98 1665.16 1094.02 C 1664.39 1091.28 1665.09 1092.5 1662.41 1090.69 L 1662.76 1089.12 z"/>
<path transform="translate(0,0)" fill="rgb(255,255,255)" d="M 1690.06 1051.22 C 1698.5 1057.25 1711.57 1065.75 1712.25 1076.74 C 1710.17 1074.57 1711.29 1074.94 1708.91 1074.37 C 1708.24 1076.65 1708.82 1076.35 1707.47 1077.34 L 1705.78 1074.29 C 1700.12 1074.47 1695.39 1074.99 1689.77 1075.59 C 1687.24 1072.76 1687.42 1062.32 1686.55 1056.97 L 1686.37 1055.9 L 1685.99 1055.52 C 1686.68 1054.29 1686.2 1054.95 1687.55 1053.54 L 1685.41 1052.6 C 1686.39 1051.8 1686.12 1052.2 1688.12 1052.36 L 1688.97 1051.24 L 1690.06 1051.22 z"/>
<path transform="translate(0,0)" fill="rgb(217,253,248)" d="M 1665.16 1094.02 C 1674.9 1093.98 1685.44 1092.02 1695.16 1092.65 C 1695.37 1095.7 1696.03 1098.6 1694.61 1101.13 C 1683.25 1100.65 1674.57 1101.4 1663.34 1101.85 C 1663.17 1097.25 1662.78 1096.94 1665.16 1094.02 z"/>
<path transform="translate(0,0)" fill="rgb(217,253,248)" d="M 1696.14 1105.83 C 1700.1 1106.22 1699.6 1105.59 1702.39 1107.59 C 1700.85 1113.1 1667.88 1115.59 1663.29 1110.02 L 1663.5 1107.38 C 1675.08 1106.42 1684.52 1106.03 1696.14 1105.83 z"/>
<path transform="translate(0,0)" fill="rgb(40,109,87)" d="M 1663.34 1101.85 C 1674.57 1101.4 1683.25 1100.65 1694.61 1101.13 C 1691.71 1102.56 1687.02 1101.87 1682.47 1103.57 C 1685.92 1103.91 1695.07 1103.61 1696.79 1104.84 L 1696.14 1105.83 C 1684.52 1106.03 1675.08 1106.42 1663.5 1107.38 L 1663.34 1101.85 z"/>
<path transform="translate(0,0)" fill="rgb(40,109,87)" d="M 1689.77 1075.59 C 1695.39 1074.99 1700.12 1074.47 1705.78 1074.29 L 1706.16 1086.58 C 1705.16 1082.35 1705.81 1081.98 1703.24 1079.42 L 1701.06 1079.64 C 1695.43 1080.62 1691.81 1081.1 1686.12 1081.58 C 1687.23 1078.66 1687.36 1077.61 1689.77 1075.59 z"/>
<path transform="translate(0,0)" fill="rgb(30,138,110)" d="M 1499.86 815.429 C 1578.76 810.454 1602.92 917.746 1532.97 950.523 C 1523.21 955.097 1508.2 956.568 1497.4 958.162 C 1483.18 975.632 1466.65 1001.17 1451.62 1020.35 C 1325.85 1181.38 1135.92 1290.74 931.641 1311.21 C 745.383 1329.88 551.701 1310.52 401.041 1190.3 C 375.09 1168.61 370.102 1162.26 354.853 1132.75 C 362.392 1140.59 372.596 1146.92 379.786 1154.24 C 422.062 1197.29 464.829 1218.62 520.512 1239.7 C 625.716 1280.33 734.277 1286.39 845.422 1278.1 C 991.321 1267.22 1116.7 1220.07 1236.53 1137.33 C 1325.12 1076.15 1387.97 1020.01 1445.66 927.512 C 1438.72 915.435 1434.5 905.898 1433.27 891.67 C 1431.49 872.731 1437.42 853.876 1449.7 839.349 C 1463.33 823.388 1479.4 816.918 1499.86 815.429 z"/>
<path transform="translate(0,0)" fill="rgb(232,54,49)" d="M 1536.96 849.758 C 1540.1 849.03 1540.77 848.494 1543.71 849.704 C 1550.28 856.933 1552.37 905.328 1550.19 915.407 C 1547.09 917.54 1545.54 917.247 1541.27 917.054 L 1533.51 917.236 C 1512.75 918.813 1491.61 919.13 1471.02 920.706 C 1467.27 921.04 1463.76 921.457 1460.55 919.557 C 1457.39 913.519 1456.24 864.673 1456.47 855.038 L 1468.07 853.472 C 1489.82 851.533 1514.72 850.952 1536.96 849.758 z"/>
<path transform="translate(0,0)" fill="rgb(255,255,255)" d="M 1467.73 868.09 C 1475.04 873.39 1498.35 890.843 1505.57 893.941 C 1515.21 903.134 1526.33 906.221 1533.51 917.236 C 1512.75 918.813 1491.61 919.13 1471.02 920.706 C 1470.76 905.618 1469.17 882.945 1467.73 868.09 z"/>
<path transform="translate(0,0)" fill="rgb(227,228,230)" d="M 1505.57 893.941 C 1516.16 883.785 1527.14 874.04 1538.48 864.727 C 1538.93 882.304 1540.5 899.567 1541.27 917.054 L 1533.51 917.236 C 1526.33 906.221 1515.21 903.134 1505.57 893.941 z"/>
<path transform="translate(0,0)" fill="rgb(255,255,255)" d="M 1468.07 853.472 C 1489.82 851.533 1514.72 850.952 1536.96 849.758 C 1526.1 859.008 1513.72 869.46 1503.71 879.654 C 1495.09 872.005 1477.88 859.326 1468.07 853.472 z"/>
<path transform="translate(0,0)" fill="rgb(30,138,110)" d="M 106.739 1562.33 C 125.333 1561.01 145.351 1562.46 164.059 1561.77 C 200.448 1560.42 235.533 1568.76 259.099 1599.09 C 272.507 1616.29 278.405 1638.17 275.455 1659.78 C 271.957 1684.99 258.29 1702.89 238.517 1717.83 C 200.991 1741.58 167.125 1735.14 124.718 1735.69 C 117.593 1735.78 110.386 1735.34 103.275 1734.83 C 106.609 1731.23 120.023 1717.45 120.424 1712.4 C 123.594 1670.95 122.474 1627.47 120.866 1585.85 C 120.602 1579.03 104.084 1568.95 106.739 1562.33 z"/>
<path transform="translate(0,0)" fill="rgb(255,255,255)" d="M 174.129 1571.6 C 224.915 1578.67 231.317 1651.02 216.587 1688.97 C 213.284 1697.48 209.957 1702.76 204.499 1709.92 C 194.881 1720.1 187.28 1723.02 174.201 1726.01 C 173.581 1712.01 171.278 1696.94 170.741 1682.71 C 169.407 1647.35 169.066 1606.63 174.129 1571.6 z"/>
<path transform="translate(0,0)" fill="rgb(0,78,122)" d="M 825.254 1562.34 C 847.424 1560.83 872.599 1565.93 889.483 1581.8 C 916.389 1607.08 898.295 1637.55 863.932 1636.9 C 855.982 1636.76 850.274 1631.41 845.458 1625.54 C 843.496 1601.65 847.47 1582.27 819.627 1575.78 C 782.559 1583.72 792.699 1636.6 799.141 1663.39 C 803.962 1683.44 813.368 1710.03 830.949 1721.85 C 838.509 1726.93 847.993 1721.44 851.211 1713.77 C 856.659 1699.92 851.497 1683.05 845.152 1670.33 C 842.388 1664.79 836.676 1660.18 839.232 1654.81 C 850.829 1653.35 902.693 1653.94 915.477 1654.94 C 906.188 1668.94 896.869 1671.06 896.48 1694.4 C 896.152 1714.09 903.595 1721.32 915.959 1734.43 C 896.939 1736.96 823.766 1736.82 805.947 1732.53 C 794.027 1729.63 782.846 1724.26 773.124 1716.77 C 755.48 1703.18 744.021 1683.09 741.313 1660.98 C 734.669 1606.97 773.243 1568.13 825.254 1562.34 z"/>
<path transform="translate(0,0)" fill="rgb(30,138,110)" d="M 398.915 1610.22 C 489.633 1601.04 509.045 1718.46 420.221 1734.82 C 403.176 1736.5 389.031 1734.62 373.956 1725.9 C 359.193 1717.48 348.451 1703.46 344.16 1687.02 C 340.228 1671.61 342.709 1655.27 351.037 1641.73 C 362.367 1622.92 378.51 1615.28 398.915 1610.22 z"/>
<path transform="translate(0,0)" fill="rgb(255,255,255)" d="M 408.222 1618.58 C 435.345 1621.73 436.603 1707.35 412.616 1726.29 C 385.784 1725.91 382.474 1638.17 408.222 1618.58 z"/>
<path transform="translate(0,0)" fill="rgb(0,78,122)" d="M 1235 1609.81 L 1237.98 1609.75 L 1239.35 1611.2 C 1240.05 1615.77 1238.34 1620.22 1237.1 1624.82 C 1245.38 1617.41 1254.36 1609.01 1265.96 1609.54 C 1308.32 1611.48 1326.87 1647.35 1324.83 1686.09 C 1324.36 1695.04 1325.02 1702.95 1326.48 1711.51 C 1328.13 1721.16 1339.79 1726.45 1339.96 1734.04 C 1333.22 1737.32 1273.02 1735.78 1262.53 1734.58 C 1264.82 1730.45 1267.55 1726.51 1269.75 1722.29 C 1283.25 1696.34 1279.49 1662.2 1268.33 1636.25 C 1264.38 1630.33 1256.46 1621.08 1249.05 1627.06 C 1234 1639.21 1233.59 1660.66 1233.77 1677.66 C 1234.03 1702.28 1236.62 1714.54 1250.55 1734.24 C 1234.67 1736.86 1187.18 1736.01 1170.45 1734.63 C 1180.69 1722.7 1188.67 1718.54 1188.98 1700.68 C 1189.18 1689.06 1190.65 1666.73 1186.57 1655.86 C 1184.85 1651.25 1174.98 1640.73 1171.16 1636.38 C 1180.4 1634.18 1187.76 1634.14 1197.49 1630.8 C 1211.63 1625.94 1220.65 1617.17 1233.7 1610.47 L 1235 1609.81 z"/>
<path transform="translate(0,0)" fill="rgb(0,78,122)" d="M 1038.1 1610.2 C 1048.4 1609.51 1053.46 1609.2 1063.93 1611.18 C 1103.72 1618.69 1123.36 1661.4 1081.68 1684.47 C 1066.33 1692.97 1048.78 1690.55 1032.04 1685.25 C 1062.71 1739.63 1095.06 1692.51 1106.95 1697.15 L 1108.19 1700.15 C 1107.29 1701.84 1106.35 1703.5 1105.37 1705.14 C 1076.87 1752.34 993.346 1743.38 980.584 1684.45 C 977.405 1669.09 980.482 1653.1 989.133 1640.01 C 1000.89 1621.99 1017.87 1614.51 1038.1 1610.2 z"/>
<path transform="translate(0,0)" fill="rgb(255,255,255)" d="M 1046.12 1618.82 C 1068.79 1620.3 1069.5 1669.09 1050.52 1681 C 1034.08 1678.8 1030.64 1660.97 1031.82 1646.87 C 1032.84 1634.8 1036.78 1626.54 1046.12 1618.82 z"/>
<path transform="translate(0,0)" fill="rgb(0,78,122)" d="M 1613.97 1608.88 C 1615.51 1610.8 1615.74 1610.69 1615.35 1613.57 C 1611.52 1642.91 1605.26 1677.56 1616.54 1705.88 C 1623.18 1722.54 1640.5 1726.29 1647.18 1707.64 C 1651.4 1695.84 1652.32 1688.83 1651.56 1676.35 C 1651.09 1668.66 1652.39 1661.44 1648.64 1654.48 C 1646.02 1649.31 1634.95 1641.47 1636.24 1635.98 C 1639.14 1634.5 1652.78 1633.92 1661.61 1630.51 C 1673.47 1625.93 1691.45 1610.69 1700.02 1610.09 C 1701.81 1611.54 1702.49 1612.62 1702.11 1615.2 C 1698.22 1642.38 1695.62 1669.49 1700.33 1696.81 C 1703.68 1713.12 1708.21 1720.38 1716.16 1734.73 C 1693 1737.3 1664.13 1740.92 1653.27 1715.96 C 1642 1729.94 1632.61 1736.16 1614.07 1735.32 C 1585.08 1734.91 1568.24 1714.11 1566.54 1686.5 C 1564.79 1658.05 1565.67 1657.26 1547.11 1636.44 C 1557.73 1633.92 1570.64 1633.28 1580.6 1628.06 C 1592.59 1621.79 1600.82 1614.01 1613.97 1608.88 z"/>
<path transform="translate(0,0)" fill="rgb(0,78,122)" d="M 1829.71 1609.46 C 1846.88 1609.96 1888.86 1615.62 1886.04 1641.61 C 1884.98 1651.35 1866.85 1655.86 1858.26 1653.75 C 1841.29 1649.6 1843.97 1634.74 1838.28 1622.09 C 1837.34 1620.03 1835.36 1619.78 1833.43 1619.44 C 1827.06 1621.22 1823.13 1628.8 1824.91 1634.97 C 1831.83 1658.89 1883.14 1668.77 1886.4 1694.4 C 1889.66 1719.98 1858.88 1732.59 1837.12 1735.19 C 1821.1 1735.76 1802.33 1733.73 1789.15 1723.87 C 1764.7 1705.56 1785.41 1685.82 1809.18 1692.27 C 1824.11 1694.91 1822.21 1719.26 1826.34 1723.54 C 1834.14 1731.61 1849.97 1712.52 1830.94 1697.94 C 1815.64 1686.21 1778.26 1672.17 1777.75 1649.9 C 1777.09 1621.39 1806.35 1610.9 1829.71 1609.46 z"/>
<path transform="translate(0,0)" fill="rgb(30,138,110)" d="M 602.32 1610.19 C 609.066 1609.64 614.787 1609.55 622.339 1609.97 C 644.093 1611.16 675.131 1629.96 674.719 1653.89 C 672.621 1667.41 652.965 1674.27 642.346 1673.81 C 623.718 1672.99 637.266 1615.58 620.776 1619.37 C 595.603 1625.14 588.812 1686.74 609.127 1701.94 C 619.964 1710.05 624.259 1711.1 636.23 1710.99 C 646.481 1709.46 651.57 1707.49 659.983 1701.44 C 663.069 1699.22 670.895 1693.02 673.927 1697.24 C 674.22 1713.07 645.017 1729.49 631.345 1733.19 C 612.952 1738.12 593.352 1735.5 576.899 1725.92 C 562.053 1717.33 551.276 1703.14 546.986 1686.54 C 543.149 1671.26 545.682 1655.08 554.005 1641.7 C 565.615 1622.8 581.637 1615.07 602.32 1610.19 z"/>
<path transform="translate(0,0)" fill="rgb(0,78,122)" d="M 1468.82 1609.81 C 1462.15 1609.91 1477.7 1609.47 1472.12 1610.03 C 1475.83 1609.66 1471.54 1627.95 1471.12 1632.56 C 1468.67 1658.96 1464.34 1691.92 1474.09 1716.98 C 1476.14 1722.24 1481.26 1729.42 1484.44 1734.06 C 1467.04 1736.96 1431.35 1735.74 1412.5 1735.66 C 1408.52 1734.73 1409.09 1735.55 1407.34 1733.01 C 1408.21 1729.12 1414.42 1724.69 1417.68 1719.44 C 1426.07 1705.93 1424.89 1667.23 1419.31 1652.48 C 1418.05 1649.16 1408.83 1643.6 1407.28 1637.51 C 1409.16 1633.86 1417.04 1634.14 1421.51 1633.56 C 1439.8 1631.2 1452.73 1618.21 1468.82 1609.81 z"/>
<path transform="translate(0,0)" fill="rgb(0,78,122)" d="M 1440.67 1562.09 C 1475.92 1562.69 1467.62 1603.51 1437.04 1611.14 C 1401.8 1612.99 1406.45 1571.49 1440.67 1562.09 z"/>
</svg>